<?xml version="1.0" encoding="UTF-8" standalone="no"?>
<!-- Created with Inkscape (http://www.inkscape.org/) -->

<svg
   version="1.1"
   id="svg2"
   xml:space="preserve"
   width="496.01007"
   height="736.77075"
   viewBox="0 0 496.01007 736.77075"
   sodipodi:docname="LOGHI_ALCIONE_NUOVA_STAGIONE.svg"
   inkscape:version="1.1.2 (0a00cf5339, 2022-02-04)"
   xmlns:inkscape="http://www.inkscape.org/namespaces/inkscape"
   xmlns:sodipodi="http://sodipodi.sourceforge.net/DTD/sodipodi-0.dtd"
   xmlns="http://www.w3.org/2000/svg"
   xmlns:svg="http://www.w3.org/2000/svg"><defs
     id="defs6"><clipPath
       clipPathUnits="userSpaceOnUse"
       id="clipPath40"><path
         d="M 0,0 H 3375 V 4250 H 0 Z"
         id="path38" /></clipPath><clipPath
       clipPathUnits="userSpaceOnUse"
       id="clipPath46"><path
         d="M 0,0 H 3375 V 4218.75 H 0 Z"
         id="path44" /></clipPath><clipPath
       clipPathUnits="userSpaceOnUse"
       id="clipPath52"><path
         d="M 0,0 H 3375 V 4218.75 H 0 Z"
         id="path50" /></clipPath><clipPath
       clipPathUnits="userSpaceOnUse"
       id="clipPath58"><path
         d="m 1586.5169,1777.7166 h 6.4313 v 6.4314 h -6.4313 z"
         id="path56" /></clipPath><clipPath
       clipPathUnits="userSpaceOnUse"
       id="clipPath64"><path
         d="m 1591.2319,1781.9028 h 1.5413 l -0.7708,-1.445 z"
         id="path62" /></clipPath><clipPath
       clipPathUnits="userSpaceOnUse"
       id="clipPath76"><path
         d="M 0,0 H 3375 V 4250 H 0 Z"
         id="path74" /></clipPath><clipPath
       clipPathUnits="userSpaceOnUse"
       id="clipPath82"><path
         d="M 0,0 H 3375 V 4218.75 H 0 Z"
         id="path80" /></clipPath><clipPath
       clipPathUnits="userSpaceOnUse"
       id="clipPath88"><path
         d="M 0,0 H 3375 V 4218.75 H 0 Z"
         id="path86" /></clipPath><clipPath
       clipPathUnits="userSpaceOnUse"
       id="clipPath94"><path
         d="m 1033.4211,1559.0508 h 1003.2898 v 829.6435 H 1033.4211 Z"
         id="path92" /></clipPath><clipPath
       clipPathUnits="userSpaceOnUse"
       id="clipPath100"><path
         d="m 1898.1555,1781.9028 h -306.9236 l 0.7705,-1.445 -116.758,-218.3916 -439.6734,822.2199 h 233.6126 l 185.9268,-347.8659 h 579.1665 z"
         id="path98" /></clipPath><clipPath
       clipPathUnits="userSpaceOnUse"
       id="clipPath112"><path
         d="M 0,0 H 3375 V 4250 H 0 Z"
         id="path110" /></clipPath><clipPath
       clipPathUnits="userSpaceOnUse"
       id="clipPath118"><path
         d="M 0,0 H 3375 V 4218.75 H 0 Z"
         id="path116" /></clipPath><clipPath
       clipPathUnits="userSpaceOnUse"
       id="clipPath124"><path
         d="M 0,0 H 3375 V 4218.75 H 0 Z"
         id="path122" /></clipPath><clipPath
       clipPathUnits="userSpaceOnUse"
       id="clipPath130"><path
         d="m 1644.3989,999.52374 h 604.5464 V 2227.9107 h -604.5464 z"
         id="path128" /></clipPath><clipPath
       clipPathUnits="userSpaceOnUse"
       id="clipPath136"><path
         d="m 1775.4246,1000.3364 -128.9927,241.3194 526.2785,984.352 70.0357,-351.5268 z"
         id="path134" /></clipPath><clipPath
       clipPathUnits="userSpaceOnUse"
       id="clipPath148"><path
         d="M 0,0 H 3375 V 4250 H 0 Z"
         id="path146" /></clipPath><clipPath
       clipPathUnits="userSpaceOnUse"
       id="clipPath154"><path
         d="M 0,0 H 3375 V 4218.75 H 0 Z"
         id="path152" /></clipPath><clipPath
       clipPathUnits="userSpaceOnUse"
       id="clipPath160"><path
         d="M 0,0 H 3375 V 4218.75 H 0 Z"
         id="path158" /></clipPath><clipPath
       clipPathUnits="userSpaceOnUse"
       id="clipPath166"><path
         d="m 2191.0632,1912.7749 h 205.8032 v 604.5464 h -205.8032 z"
         id="path164" /></clipPath><clipPath
       clipPathUnits="userSpaceOnUse"
       id="clipPath172"><path
         d="m 2395.0518,2159.3438 -130.0523,-243.2461 -70.0356,351.5268 129.8596,244.113 z"
         id="path170" /></clipPath><clipPath
       clipPathUnits="userSpaceOnUse"
       id="clipPath184"><path
         d="M 0,0 H 3375 V 4250 H 0 Z"
         id="path182" /></clipPath><clipPath
       clipPathUnits="userSpaceOnUse"
       id="clipPath190"><path
         d="M 0,0 H 3375 V 4218.75 H 0 Z"
         id="path188" /></clipPath><clipPath
       clipPathUnits="userSpaceOnUse"
       id="clipPath196"><path
         d="M 0,0 H 3375 V 4218.75 H 0 Z"
         id="path194" /></clipPath><clipPath
       clipPathUnits="userSpaceOnUse"
       id="clipPath202"><path
         d="m 2197.4946,1732.6971 h 6.4314 v 12.8627 h -6.4314 z"
         id="path200" /></clipPath><clipPath
       clipPathUnits="userSpaceOnUse"
       id="clipPath208"><path
         d="m 2202.8633,1739.7081 -2.023,-3.7571 1.8304,3.9499 0.096,-0.1928"
         id="path206" /></clipPath><clipPath
       clipPathUnits="userSpaceOnUse"
       id="clipPath220"><path
         d="M 0,0 H 3375 V 4250 H 0 Z"
         id="path218" /></clipPath><clipPath
       clipPathUnits="userSpaceOnUse"
       id="clipPath226"><path
         d="M 0,0 H 3375 V 4218.75 H 0 Z"
         id="path224" /></clipPath><clipPath
       clipPathUnits="userSpaceOnUse"
       id="clipPath232"><path
         d="M 0,0 H 3375 V 4218.75 H 0 Z"
         id="path230" /></clipPath><clipPath
       clipPathUnits="userSpaceOnUse"
       id="clipPath238"><path
         d="M 1837.3394,845.17145 H 2351.847 V 1359.6791 H 1837.3394 Z"
         id="path236" /></clipPath><clipPath
       clipPathUnits="userSpaceOnUse"
       id="clipPath244"><path
         d="m 2331.1816,848.31958 c 0.097,0 -226.8691,227.44712 -336.5947,317.61682 -4.3352,3.5643 -136.9885,-94.2157 -156.5445,-108.666 l 160.1087,299.6022 c 93.0598,-83.4263 207.9876,-188.6242 300.8545,-270.3163 50.2871,-44.2178 71.5772,-162.32467 32.0796,-238.23672"
         id="path242" /></clipPath><clipPath
       clipPathUnits="userSpaceOnUse"
       id="clipPath256"><path
         d="M 0,0 H 3375 V 4250 H 0 Z"
         id="path254" /></clipPath><clipPath
       clipPathUnits="userSpaceOnUse"
       id="clipPath262"><path
         d="M 0,0 H 3375 V 4218.75 H 0 Z"
         id="path260" /></clipPath><clipPath
       clipPathUnits="userSpaceOnUse"
       id="clipPath268"><path
         d="M 0,0 H 3375 V 4218.75 H 0 Z"
         id="path266" /></clipPath><clipPath
       clipPathUnits="userSpaceOnUse"
       id="clipPath274"><path
         d="m 2030.2798,1192.4641 h 276.5479 v 360.1553 h -276.5479 z"
         id="path272" /></clipPath><clipPath
       clipPathUnits="userSpaceOnUse"
       id="clipPath280"><path
         d="m 2281.5691,1197.5343 c -76.49,67.3383 -172.1509,154.0397 -249.7004,222.5341 l 69.6501,130.245 c 50.2869,-40.6535 112.134,-92.1927 157.6042,-135.5435 53.6587,-51.0576 61.9434,-154.6178 22.4461,-217.2356"
         id="path278" /></clipPath><clipPath
       clipPathUnits="userSpaceOnUse"
       id="clipPath292"><path
         d="M 0,0 H 3375 V 4250 H 0 Z"
         id="path290" /></clipPath><clipPath
       clipPathUnits="userSpaceOnUse"
       id="clipPath298"><path
         d="M 0,0 H 3375 V 4218.75 H 0 Z"
         id="path296" /></clipPath><clipPath
       clipPathUnits="userSpaceOnUse"
       id="clipPath304"><path
         d="M 0,0 H 3375 V 4218.75 H 0 Z"
         id="path302" /></clipPath><clipPath
       clipPathUnits="userSpaceOnUse"
       id="clipPath310"><path
         d="m 2133.1812,1552.6194 h 102.9016 v 192.9404 h -102.9016 z"
         id="path308" /></clipPath><clipPath
       clipPathUnits="userSpaceOnUse"
       id="clipPath316"><path
         d="m 2208.3545,1557.9238 c -22.1572,17.533 -51.8284,34.6807 -73.5037,52.7917 l 55.9707,103.9455 10.0188,21.3864 2.023,3.757 c 34.8733,-52.6953 42.0022,-136.0251 5.4912,-181.7843"
         id="path314" /></clipPath><clipPath
       clipPathUnits="userSpaceOnUse"
       id="clipPath328"><path
         d="M 0,0 H 3375 V 4250 H 0 Z"
         id="path326" /></clipPath><clipPath
       clipPathUnits="userSpaceOnUse"
       id="clipPath334"><path
         d="M 0,0 H 3375 V 4218.75 H 0 Z"
         id="path332" /></clipPath><clipPath
       clipPathUnits="userSpaceOnUse"
       id="clipPath340"><path
         d="M 0,0 H 3375 V 4218.75 H 0 Z"
         id="path338" /></clipPath><clipPath
       clipPathUnits="userSpaceOnUse"
       id="clipPath346"><path
         d="M 962.67633,2607.3601 H 1213.4988 V 2864.614 H 962.67633 Z"
         id="path344" /></clipPath><clipPath
       clipPathUnits="userSpaceOnUse"
       id="clipPath352"><path
         d="m 965.82446,2607.8801 h 46.81884 l 76.2011,118.3958 76.201,-118.3958 h 46.8189 v 250.3748 h -43.9287 v -179.4722 l -79.0912,118.0105 h -1.445 l -78.3205,-117.3362 v 178.7979 h -43.25444 z"
         id="path350" /></clipPath><clipPath
       clipPathUnits="userSpaceOnUse"
       id="clipPath364"><path
         d="m 1296.5429,2607.8801 h 44.025 v 250.3748 h -44.025 z"
         clip-rule="evenodd"
         id="path362" /></clipPath><clipPath
       clipPathUnits="userSpaceOnUse"
       id="clipPath376"><path
         d="M 0,0 H 3375 V 4250 H 0 Z"
         id="path374" /></clipPath><clipPath
       clipPathUnits="userSpaceOnUse"
       id="clipPath382"><path
         d="M 0,0 H 3375 V 4218.75 H 0 Z"
         id="path380" /></clipPath><clipPath
       clipPathUnits="userSpaceOnUse"
       id="clipPath388"><path
         d="M 0,0 H 3375 V 4218.75 H 0 Z"
         id="path386" /></clipPath><clipPath
       clipPathUnits="userSpaceOnUse"
       id="clipPath394"><path
         d="m 1419.3019,2607.3601 h 186.509 v 257.2539 h -186.509 z"
         id="path392" /></clipPath><clipPath
       clipPathUnits="userSpaceOnUse"
       id="clipPath400"><path
         d="m 1425.2466,2607.8801 h 44.025 v 210.2993 h 131.5938 v 40.0755 h -175.6188 z"
         id="path398" /></clipPath><clipPath
       clipPathUnits="userSpaceOnUse"
       id="clipPath412"><path
         d="M 0,0 H 3375 V 4250 H 0 Z"
         id="path410" /></clipPath><clipPath
       clipPathUnits="userSpaceOnUse"
       id="clipPath418"><path
         d="M 0,0 H 3375 V 4218.75 H 0 Z"
         id="path416" /></clipPath><clipPath
       clipPathUnits="userSpaceOnUse"
       id="clipPath424"><path
         d="M 0,0 H 3375 V 4218.75 H 0 Z"
         id="path422" /></clipPath><clipPath
       clipPathUnits="userSpaceOnUse"
       id="clipPath430"><path
         d="m 1637.9675,2600.9287 h 270.1166 v 263.6853 h -270.1166 z"
         id="path428" /></clipPath><clipPath
       clipPathUnits="userSpaceOnUse"
       id="clipPath436"><path
         d="m 1816.1743,2758.8372 -43.2545,-100.1885 -42.9655,100.1885 z m -62.9068,-152.6912 h 40.7497 l 110.111,252.1089 h -46.5298 l -25.4325,-60.4021 h -118.2994 l -25.7215,60.4021 h -45.0849 z"
         id="path434" /></clipPath><clipPath
       clipPathUnits="userSpaceOnUse"
       id="clipPath448"><path
         d="M 0,0 H 3375 V 4250 H 0 Z"
         id="path446" /></clipPath><clipPath
       clipPathUnits="userSpaceOnUse"
       id="clipPath454"><path
         d="M 0,0 H 3375 V 4218.75 H 0 Z"
         id="path452" /></clipPath><clipPath
       clipPathUnits="userSpaceOnUse"
       id="clipPath460"><path
         d="M 0,0 H 3375 V 4218.75 H 0 Z"
         id="path458" /></clipPath><clipPath
       clipPathUnits="userSpaceOnUse"
       id="clipPath466"><path
         d="m 1959.5349,2607.3601 h 225.0972 v 257.2539 h -225.0972 z"
         id="path464" /></clipPath><clipPath
       clipPathUnits="userSpaceOnUse"
       id="clipPath472"><path
         d="m 1964.8193,2607.8801 h 40.7498 l 134.0984,173.114 v -173.114 h 43.2544 v 250.3748 h -36.8001 l -137.9516,-178.1238 v 178.1238 h -43.3509 z"
         id="path470" /></clipPath><clipPath
       clipPathUnits="userSpaceOnUse"
       id="clipPath484"><path
         d="M 0,0 H 3375 V 4250 H 0 Z"
         id="path482" /></clipPath><clipPath
       clipPathUnits="userSpaceOnUse"
       id="clipPath490"><path
         d="M 0,0 H 3375 V 4218.75 H 0 Z"
         id="path488" /></clipPath><clipPath
       clipPathUnits="userSpaceOnUse"
       id="clipPath496"><path
         d="M 0,0 H 3375 V 4218.75 H 0 Z"
         id="path494" /></clipPath><clipPath
       clipPathUnits="userSpaceOnUse"
       id="clipPath502"><path
         d="M 2248.9453,2600.9287 H 2519.062 V 2864.614 H 2248.9453 Z"
         id="path500" /></clipPath><clipPath
       clipPathUnits="userSpaceOnUse"
       id="clipPath508"><path
         d="m 2469.8079,2733.79 v -0.6743 c 0,-48.6494 -35.4515,-89.0139 -85.1602,-89.0139 -49.709,0 -84.3896,39.6902 -84.3896,88.3394 v 0.7707 c 0,48.6492 35.4514,88.7246 85.1601,88.7246 49.709,0 84.3897,-39.3047 84.3897,-87.9541 m -215.6944,0 v -0.6743 c 0,-70.5171 54.333,-129.4741 131.2085,-129.4741 76.8755,0 130.534,58.2827 130.534,128.7036 v 0.7705 c 0,70.4209 -54.3331,129.4746 -131.2083,129.4746 -76.8755,0 -130.5342,-58.2829 -130.5342,-128.7038"
         id="path506" /></clipPath><clipPath
       clipPathUnits="userSpaceOnUse"
       id="clipPath520"><path
         d="M 0,0 H 3375 V 4250 H 0 Z"
         id="path518" /></clipPath><clipPath
       clipPathUnits="userSpaceOnUse"
       id="clipPath526"><path
         d="M 0,0 H 3375 V 4218.75 H 0 Z"
         id="path524" /></clipPath><clipPath
       clipPathUnits="userSpaceOnUse"
       id="clipPath532"><path
         d="M 0,0 H 3375 V 4218.75 H 0 Z"
         id="path530" /></clipPath><clipPath
       clipPathUnits="userSpaceOnUse"
       id="clipPath538"><path
         d="m 1387.1451,2948.2214 h 70.7448 v 199.3718 h -70.7448 z"
         id="path536" /></clipPath><clipPath
       clipPathUnits="userSpaceOnUse"
       id="clipPath544"><path
         d="m 1431.7974,2973.1826 -36.8964,11.4639 -5.2985,-17.9182 47.7823,-16.4734 h 16.1843 V 3147.26 h -21.7717 z"
         id="path542" /></clipPath><clipPath
       clipPathUnits="userSpaceOnUse"
       id="clipPath556"><path
         d="M 0,0 H 3375 V 4250 H 0 Z"
         id="path554" /></clipPath><clipPath
       clipPathUnits="userSpaceOnUse"
       id="clipPath562"><path
         d="M 0,0 H 3375 V 4218.75 H 0 Z"
         id="path560" /></clipPath><clipPath
       clipPathUnits="userSpaceOnUse"
       id="clipPath568"><path
         d="M 0,0 H 3375 V 4218.75 H 0 Z"
         id="path566" /></clipPath><clipPath
       clipPathUnits="userSpaceOnUse"
       id="clipPath574"><path
         d="m 1528.6348,2948.2214 h 147.9209 v 205.8032 h -147.9209 z"
         id="path572" /></clipPath><clipPath
       clipPathUnits="userSpaceOnUse"
       id="clipPath580"><path
         d="m 1649.4182,3012.8728 v -0.5781 c 0,-24.8545 -20.423,-44.4104 -49.7088,-44.4104 -29.2859,0 -46.9152,21.4826 -46.9152,45.8554 v 0.5779 c 0,24.8545 19.556,42.773 48.0712,42.773 29.8639,0 48.6493,-21.7718 48.6493,-44.1216 m 4.1423,36.0293 v -3.8533 c -12.3309,18.9778 -30.1528,31.0198 -55.2964,31.0198 -40.2681,0 -68.2052,-25.4324 -68.2052,-60.5947 v -0.5782 c 0,-37.1853 28.8042,-66.4711 70.421,-66.4711 22.3496,0 38.823,7.5141 51.4429,20.134 14.8357,14.8357 24.2764,36.6074 24.2764,75.7195 v 0.3852 c 0,62.0401 -32.9466,105.8723 -81.3068,105.8723 -25.4325,0 -43.8324,-10.3078 -60.3058,-23.9873 l 12.8126,-17.0512 c 15.8953,13.9685 30.7309,21.0009 48.0712,21.0009 37.7634,0 58.0901,-39.4011 58.0901,-81.5959"
         id="path578" /></clipPath><clipPath
       clipPathUnits="userSpaceOnUse"
       id="clipPath592"><path
         d="M 0,0 H 3375 V 4250 H 0 Z"
         id="path590" /></clipPath><clipPath
       clipPathUnits="userSpaceOnUse"
       id="clipPath598"><path
         d="M 0,0 H 3375 V 4218.75 H 0 Z"
         id="path596" /></clipPath><clipPath
       clipPathUnits="userSpaceOnUse"
       id="clipPath604"><path
         d="M 0,0 H 3375 V 4218.75 H 0 Z"
         id="path602" /></clipPath><clipPath
       clipPathUnits="userSpaceOnUse"
       id="clipPath610"><path
         d="m 1734.4377,2948.2214 h 147.921 v 205.8032 h -147.921 z"
         id="path608" /></clipPath><clipPath
       clipPathUnits="userSpaceOnUse"
       id="clipPath616"><path
         d="m 1737.3722,3119.6118 14.5466,-15.8952 c 17.0513,16.4733 35.7404,26.7812 55.5854,26.7812 27.9371,0 47.2042,-18.689 47.2042,-43.3508 v -0.5779 c 0,-24.2764 -20.1342,-41.0388 -48.6493,-41.0388 -16.4734,0 -29.5748,5.0095 -41.0388,11.1748 l -14.8355,-9.7298 5.5874,-95.2753 h 112.7119 v 20.423 h -93.3486 l -4.1423,62.6177 c 11.4638,-5.0093 22.3496,-8.6701 38.5339,-8.6701 38.0525,0 67.6272,22.3498 67.6272,59.8239 v 0.5782 c 0,38.2451 -29.093,64.2556 -69.8429,64.2556 -27.9371,0 -52.2135,-13.3907 -69.8429,-31.02"
         id="path614" /></clipPath><clipPath
       clipPathUnits="userSpaceOnUse"
       id="clipPath628"><path
         d="M 0,0 H 3375 V 4250 H 0 Z"
         id="path626" /></clipPath><clipPath
       clipPathUnits="userSpaceOnUse"
       id="clipPath634"><path
         d="M 0,0 H 3375 V 4218.75 H 0 Z"
         id="path632" /></clipPath><clipPath
       clipPathUnits="userSpaceOnUse"
       id="clipPath640"><path
         d="M 0,0 H 3375 V 4218.75 H 0 Z"
         id="path638" /></clipPath><clipPath
       clipPathUnits="userSpaceOnUse"
       id="clipPath646"><path
         d="m 1933.8096,2948.2214 h 141.4895 v 199.3718 h -141.4895 z"
         id="path644" /></clipPath><clipPath
       clipPathUnits="userSpaceOnUse"
       id="clipPath652"><path
         d="m 1934.9554,3130.2087 70.9989,-62.6176 c 29.8641,-26.7813 40.8462,-41.9058 40.8462,-61.4617 0,-22.9277 -18.2072,-37.4746 -39.4011,-37.4746 -22.3498,0 -36.8962,11.7532 -52.5024,33.5249 l -16.1845,-11.7532 c 17.6293,-26.2993 36.0292,-41.6167 70.421,-41.6167 35.1622,0 60.5948,23.5059 60.5948,55.2964 v 0.5779 c 0,28.5151 -15.1248,46.1448 -49.42,76.0085 l -52.2136,46.4334 h 103.6565 v 20.134 h -136.7958 z"
         id="path650" /></clipPath></defs><sodipodi:namedview
     id="namedview4"
     pagecolor="#505050"
     bordercolor="#eeeeee"
     borderopacity="1"
     inkscape:pageshadow="0"
     inkscape:pageopacity="0"
     inkscape:pagecheckerboard="0"
     showgrid="false"
     inkscape:zoom="0.47481481"
     inkscape:cx="230.61622"
     inkscape:cy="403.31513"
     inkscape:window-width="1920"
     inkscape:window-height="1017"
     inkscape:window-x="0"
     inkscape:window-y="30"
     inkscape:window-maximized="1"
     inkscape:current-layer="g8"
     fit-margin-top="0"
     fit-margin-left="0"
     fit-margin-right="0"
     fit-margin-bottom="0" /><g
     id="g8"
     inkscape:groupmode="layer"
     inkscape:label="LOGHI_ALCIONE_NUOVA_STAGIONE.pdf"
     transform="matrix(0.31999998,0,0,0.31999998,-309.06381,-271.46225)"><g
       id="g34"><g
         id="g36"
         clip-path="url(#clipPath40)"><g
           id="g42"
           clip-path="url(#clipPath46)"><g
             id="g48"
             clip-path="url(#clipPath52)"><g
               id="g54"
               clip-path="url(#clipPath58)"><g
                 id="g60"
                 clip-path="url(#clipPath64)"><g
                   id="g66"
                   transform="matrix(6.4313455,0,0,6.4313455,917.65692,800.15204)"><path
                     d="M 0,0 H 256 V 373 H 0 Z"
                     style="fill:#f15b2b;fill-opacity:1;fill-rule:nonzero;stroke:none"
                     id="path68" /></g></g></g></g></g></g></g><g
       id="g70"><g
         id="g72"
         clip-path="url(#clipPath76)"><g
           id="g78"
           clip-path="url(#clipPath82)"><g
             id="g84"
             clip-path="url(#clipPath88)"><g
               id="g90"
               clip-path="url(#clipPath94)"><g
                 id="g96"
                 clip-path="url(#clipPath100)"><g
                   id="g102"
                   transform="matrix(6.4313455,0,0,6.4313455,917.65692,800.15204)"><path
                     d="M 0,0 H 256 V 373 H 0 Z"
                     style="fill:#f15c27;fill-opacity:1;fill-rule:nonzero;stroke:none"
                     id="path104" /></g></g></g></g></g></g></g><g
       id="g106"><g
         id="g108"
         clip-path="url(#clipPath112)"><g
           id="g114"
           clip-path="url(#clipPath118)"><g
             id="g120"
             clip-path="url(#clipPath124)"><g
               id="g126"
               clip-path="url(#clipPath130)"><g
                 id="g132"
                 clip-path="url(#clipPath136)"><g
                   id="g138"
                   transform="matrix(6.4313455,0,0,6.4313455,917.65692,800.15204)"><path
                     d="M 0,0 H 256 V 373 H 0 Z"
                     style="fill:#f15c27;fill-opacity:1;fill-rule:nonzero;stroke:none"
                     id="path140" /></g></g></g></g></g></g></g><g
       id="g142"><g
         id="g144"
         clip-path="url(#clipPath148)"><g
           id="g150"
           clip-path="url(#clipPath154)"><g
             id="g156"
             clip-path="url(#clipPath160)"><g
               id="g162"
               clip-path="url(#clipPath166)"><g
                 id="g168"
                 clip-path="url(#clipPath172)"><g
                   id="g174"
                   transform="matrix(6.4313455,0,0,6.4313455,917.65692,800.15204)"><path
                     d="M 0,0 H 256 V 373 H 0 Z"
                     style="fill:#1d4593;fill-opacity:1;fill-rule:nonzero;stroke:none"
                     id="path176" /></g></g></g></g></g></g></g><g
       id="g178"><g
         id="g180"
         clip-path="url(#clipPath184)"><g
           id="g186"
           clip-path="url(#clipPath190)"><g
             id="g192"
             clip-path="url(#clipPath196)"><g
               id="g198"
               clip-path="url(#clipPath202)"><g
                 id="g204"
                 clip-path="url(#clipPath208)"><g
                   id="g210"
                   transform="matrix(6.4313455,0,0,6.4313455,917.65692,800.15204)"><path
                     d="M 0,0 H 256 V 373 H 0 Z"
                     style="fill:#1d4593;fill-opacity:1;fill-rule:nonzero;stroke:none"
                     id="path212" /></g></g></g></g></g></g></g><g
       id="g214"><g
         id="g216"
         clip-path="url(#clipPath220)"><g
           id="g222"
           clip-path="url(#clipPath226)"><g
             id="g228"
             clip-path="url(#clipPath232)"><g
               id="g234"
               clip-path="url(#clipPath238)"><g
                 id="g240"
                 clip-path="url(#clipPath244)"><g
                   id="g246"
                   transform="matrix(6.4313455,0,0,6.4313455,917.65692,800.15204)"><path
                     d="M 0,0 H 256 V 373 H 0 Z"
                     style="fill:#1d4593;fill-opacity:1;fill-rule:nonzero;stroke:none"
                     id="path248" /></g></g></g></g></g></g></g><g
       id="g250"><g
         id="g252"
         clip-path="url(#clipPath256)"><g
           id="g258"
           clip-path="url(#clipPath262)"><g
             id="g264"
             clip-path="url(#clipPath268)"><g
               id="g270"
               clip-path="url(#clipPath274)"><g
                 id="g276"
                 clip-path="url(#clipPath280)"><g
                   id="g282"
                   transform="matrix(6.4313455,0,0,6.4313455,917.65692,800.15204)"><path
                     d="M 0,0 H 256 V 373 H 0 Z"
                     style="fill:#1d4593;fill-opacity:1;fill-rule:nonzero;stroke:none"
                     id="path284" /></g></g></g></g></g></g></g><g
       id="g286"><g
         id="g288"
         clip-path="url(#clipPath292)"><g
           id="g294"
           clip-path="url(#clipPath298)"><g
             id="g300"
             clip-path="url(#clipPath304)"><g
               id="g306"
               clip-path="url(#clipPath310)"><g
                 id="g312"
                 clip-path="url(#clipPath316)"><g
                   id="g318"
                   transform="matrix(6.4313455,0,0,6.4313455,917.65692,800.15204)"><path
                     d="M 0,0 H 256 V 373 H 0 Z"
                     style="fill:#1d4593;fill-opacity:1;fill-rule:nonzero;stroke:none"
                     id="path320" /></g></g></g></g></g></g></g><g
       id="g322"><g
         id="g324"
         clip-path="url(#clipPath328)"><g
           id="g330"
           clip-path="url(#clipPath334)"><g
             id="g336"
             clip-path="url(#clipPath340)"><g
               id="g342"
               clip-path="url(#clipPath346)"><g
                 id="g348"
                 clip-path="url(#clipPath352)"><g
                   id="g354"
                   transform="matrix(6.4313455,0,0,6.4313455,917.65692,800.15204)"><path
                     d="M 0,0 H 256 V 373 H 0 Z"
                     style="fill:#f15c27;fill-opacity:1;fill-rule:nonzero;stroke:none"
                     id="path356" /></g></g></g></g></g></g></g><g
       id="g358"><g
         id="g360"
         clip-path="url(#clipPath364)"><g
           id="g366"
           transform="matrix(6.4313455,0,0,6.4313455,917.65692,800.15204)"><path
             d="M 0,0 H 256 V 373 H 0 Z"
             style="fill:#f15c27;fill-opacity:1;fill-rule:nonzero;stroke:none"
             id="path368" /></g></g></g><g
       id="g370"><g
         id="g372"
         clip-path="url(#clipPath376)"><g
           id="g378"
           clip-path="url(#clipPath382)"><g
             id="g384"
             clip-path="url(#clipPath388)"><g
               id="g390"
               clip-path="url(#clipPath394)"><g
                 id="g396"
                 clip-path="url(#clipPath400)"><g
                   id="g402"
                   transform="matrix(6.4313455,0,0,6.4313455,917.65692,800.15204)"><path
                     d="M 0,0 H 256 V 373 H 0 Z"
                     style="fill:#f15c27;fill-opacity:1;fill-rule:nonzero;stroke:none"
                     id="path404" /></g></g></g></g></g></g></g><g
       id="g406"><g
         id="g408"
         clip-path="url(#clipPath412)"><g
           id="g414"
           clip-path="url(#clipPath418)"><g
             id="g420"
             clip-path="url(#clipPath424)"><g
               id="g426"
               clip-path="url(#clipPath430)"><g
                 id="g432"
                 clip-path="url(#clipPath436)"><g
                   id="g438"
                   transform="matrix(6.4313455,0,0,6.4313455,917.65692,800.15204)"><path
                     d="M 0,0 H 256 V 373 H 0 Z"
                     style="fill:#f15c27;fill-opacity:1;fill-rule:nonzero;stroke:none"
                     id="path440" /></g></g></g></g></g></g></g><g
       id="g442"><g
         id="g444"
         clip-path="url(#clipPath448)"><g
           id="g450"
           clip-path="url(#clipPath454)"><g
             id="g456"
             clip-path="url(#clipPath460)"><g
               id="g462"
               clip-path="url(#clipPath466)"><g
                 id="g468"
                 clip-path="url(#clipPath472)"><g
                   id="g474"
                   transform="matrix(6.4313455,0,0,6.4313455,917.65692,800.15204)"><path
                     d="M 0,0 H 256 V 373 H 0 Z"
                     style="fill:#f15c27;fill-opacity:1;fill-rule:nonzero;stroke:none"
                     id="path476" /></g></g></g></g></g></g></g><g
       id="g478"><g
         id="g480"
         clip-path="url(#clipPath484)"><g
           id="g486"
           clip-path="url(#clipPath490)"><g
             id="g492"
             clip-path="url(#clipPath496)"><g
               id="g498"
               clip-path="url(#clipPath502)"><g
                 id="g504"
                 clip-path="url(#clipPath508)"><g
                   id="g510"
                   transform="matrix(6.4313455,0,0,6.4313455,917.65692,800.15204)"><path
                     d="M 0,0 H 256 V 373 H 0 Z"
                     style="fill:#f15c27;fill-opacity:1;fill-rule:nonzero;stroke:none"
                     id="path512" /></g></g></g></g></g></g></g><g
       id="g514"><g
         id="g516"
         clip-path="url(#clipPath520)"><g
           id="g522"
           clip-path="url(#clipPath526)"><g
             id="g528"
             clip-path="url(#clipPath532)"><g
               id="g534"
               clip-path="url(#clipPath538)"><g
                 id="g540"
                 clip-path="url(#clipPath544)"><g
                   id="g546"
                   transform="matrix(6.4313455,0,0,6.4313455,917.65692,800.15204)"><path
                     d="M 0,0 H 256 V 373 H 0 Z"
                     style="fill:#f15c27;fill-opacity:1;fill-rule:nonzero;stroke:none"
                     id="path548" /></g></g></g></g></g></g></g><g
       id="g550"><g
         id="g552"
         clip-path="url(#clipPath556)"><g
           id="g558"
           clip-path="url(#clipPath562)"><g
             id="g564"
             clip-path="url(#clipPath568)"><g
               id="g570"
               clip-path="url(#clipPath574)"><g
                 id="g576"
                 clip-path="url(#clipPath580)"><g
                   id="g582"
                   transform="matrix(6.4313455,0,0,6.4313455,917.65692,800.15204)"><path
                     d="M 0,0 H 256 V 373 H 0 Z"
                     style="fill:#f15c27;fill-opacity:1;fill-rule:nonzero;stroke:none"
                     id="path584" /></g></g></g></g></g></g></g><g
       id="g586"><g
         id="g588"
         clip-path="url(#clipPath592)"><g
           id="g594"
           clip-path="url(#clipPath598)"><g
             id="g600"
             clip-path="url(#clipPath604)"><g
               id="g606"
               clip-path="url(#clipPath610)"><g
                 id="g612"
                 clip-path="url(#clipPath616)"><g
                   id="g618"
                   transform="matrix(6.4313455,0,0,6.4313455,917.65692,800.15204)"><path
                     d="M 0,0 H 256 V 373 H 0 Z"
                     style="fill:#f15c27;fill-opacity:1;fill-rule:nonzero;stroke:none"
                     id="path620" /></g></g></g></g></g></g></g><g
       id="g622"><g
         id="g624"
         clip-path="url(#clipPath628)"><g
           id="g630"
           clip-path="url(#clipPath634)"><g
             id="g636"
             clip-path="url(#clipPath640)"><g
               id="g642"
               clip-path="url(#clipPath646)"><g
                 id="g648"
                 clip-path="url(#clipPath652)"><g
                   id="g654"
                   transform="matrix(6.4313455,0,0,6.4313455,917.65692,800.15204)"><path
                     d="M 0,0 H 256 V 373 H 0 Z"
                     style="fill:#f15c27;fill-opacity:1;fill-rule:nonzero;stroke:none"
                     id="path656" /></g></g></g></g></g></g></g></g></svg>
